<svg width="24" height="23" viewBox="0 0 24 23" fill="none" xmlns="http://www.w3.org/2000/svg">
<path d="M13.5 2C13.5 1.17157 12.8284 0.5 12 0.5C11.1716 0.5 10.5 1.17157 10.5 2L13.5 2ZM10.9393 22.0607C11.5251 22.6464 12.4749 22.6464 13.0607 22.0607L22.6066 12.5147C23.1924 11.9289 23.1924 10.9792 22.6066 10.3934C22.0208 9.80761 21.0711 9.80761 20.4853 10.3934L12 18.8787L3.51472 10.3934C2.92893 9.80761 1.97919 9.80761 1.3934 10.3934C0.807612 10.9792 0.807612 11.9289 1.3934 12.5147L10.9393 22.0607ZM10.5 2L10.5 21L13.5 21L13.5 2L10.5 2Z" fill="white"/>
</svg>
