<svg width="1374" height="1024" viewBox="0 0 1374 1024" fill="none" xmlns="http://www.w3.org/2000/svg">
<g opacity="0.5" clip-path="url(#clip0_392_1557)">
<path fill-rule="evenodd" clip-rule="evenodd" d="M274.472 667.583L351.765 643.003L364.119 639.075L399.248 627.88L457.774 609.229L342.922 649.706L-198.629 822.105L274.472 667.583Z" stroke="url(#paint0_linear_392_1557)" stroke-width="0.192"/>
<path fill-rule="evenodd" clip-rule="evenodd" d="M-181.464 814.986L711.192 519.688L596.624 559.968L465.057 603.475L444.119 610.399L388.265 628.884L293.16 660.356L-181.464 814.986Z" stroke="url(#paint1_linear_392_1557)" stroke-width="0.192"/>
<path fill-rule="evenodd" clip-rule="evenodd" d="M1345.78 317.302L872.644 470.965L794.38 495.708L782.025 499.615L746.888 510.749L687.202 529.658L802.056 489.391L1345.78 317.302Z" stroke="url(#paint2_linear_392_1557)" stroke-width="0.192"/>
<path fill-rule="evenodd" clip-rule="evenodd" d="M1323.73 324.754L431.84 620.695L546.41 580.299L679.83 536.046L700.758 529.102L756.617 510.562L849.236 479.818L1323.73 324.754Z" stroke="url(#paint3_linear_392_1557)" stroke-width="0.192"/>
<path fill-rule="evenodd" clip-rule="evenodd" d="M349.942 645.67L421.624 623.175L433.081 619.58L465.644 609.322L519.897 592.241L415.982 630.789L-86.1316 788.643L349.942 645.67Z" stroke="url(#paint4_linear_392_1557)" stroke-width="0.227"/>
<path fill-rule="evenodd" clip-rule="evenodd" d="M-70.2858 782.517L748.811 506.431L645.246 544.947L524.511 585.617L505.294 592.09L454.048 609.375L366.789 638.805L-70.2858 782.517Z" stroke="url(#paint5_linear_392_1557)" stroke-width="0.227"/>
<path fill-rule="evenodd" clip-rule="evenodd" d="M1336.28 322.374L900.614 464.987L828.103 487.706L816.659 491.292L784.121 501.522L728.847 518.899L832.663 480.439L1336.28 322.374Z" stroke="url(#paint6_linear_392_1557)" stroke-width="0.227"/>
<path fill-rule="evenodd" clip-rule="evenodd" d="M1315.88 328.061L497.428 603.382L600.997 564.934L723.442 523.768L742.652 517.309L793.906 500.058L878.891 471.453L1315.88 328.061Z" stroke="url(#paint7_linear_392_1557)" stroke-width="0.227"/>
<path fill-rule="evenodd" clip-rule="evenodd" d="M421.153 628.095L487.675 607.567L498.308 604.286L528.507 594.917L578.818 579.305L486.276 616.745L20.4696 760.888L421.153 628.095Z" stroke="url(#paint8_linear_392_1557)" stroke-width="0.268"/>
<path fill-rule="evenodd" clip-rule="evenodd" d="M34.109 755.133L783.751 496.48L691.345 533.863L580.831 571.957L563.243 578.019L516.349 594.215L436.498 621.793L34.109 755.133Z" stroke="url(#paint9_linear_392_1557)" stroke-width="0.268"/>
<path fill-rule="evenodd" clip-rule="evenodd" d="M1327.11 325.557L926.265 458.584L858.884 479.405L848.25 482.693L818.035 492.08L766.71 508.03L859.29 470.533L1327.11 325.557Z" stroke="url(#paint10_linear_392_1557)" stroke-width="0.268"/>
<path fill-rule="evenodd" clip-rule="evenodd" d="M1310.37 334.005L562.011 591.126L654.33 553.911L766.306 515.476L783.871 509.447L830.729 493.331L908.424 466.609L1310.37 334.005Z" stroke="url(#paint11_linear_392_1557)" stroke-width="0.268"/>
<path fill-rule="evenodd" clip-rule="evenodd" d="M490.432 611.951L552.493 593.305L562.409 590.325L590.547 581.791L637.423 567.577L556.925 605.028L122.652 736.121L490.432 611.951Z" stroke="url(#paint12_linear_392_1557)" stroke-width="0.315"/>
<path fill-rule="evenodd" clip-rule="evenodd" d="M135.896 729.89L815.835 485.853L735.634 523.05L635.37 558.977L619.415 564.696L576.892 579.983L504.484 606.013L135.896 729.89Z" stroke="url(#paint13_linear_392_1557)" stroke-width="0.315"/>
<path fill-rule="evenodd" clip-rule="evenodd" d="M1321.44 330.983L953.872 454.872L891.073 473.704L881.163 476.678L853.037 485.188L805.261 499.649L885.704 462.265L1321.44 330.983Z" stroke="url(#paint14_linear_392_1557)" stroke-width="0.315"/>
<path fill-rule="evenodd" clip-rule="evenodd" d="M1306.81 337.46L626.87 581.497L707.14 544.269L808.902 507.802L824.865 502.082L867.428 486.781L938.003 461.41L1306.81 337.46Z" stroke="url(#paint15_linear_392_1557)" stroke-width="0.315"/>
<path fill-rule="evenodd" clip-rule="evenodd" d="M559.318 601.765L617.49 585.247L626.786 582.607L653.111 575.016L696.964 562.373L630.267 600.98L223.596 717.357L559.318 601.765Z" stroke="url(#paint16_linear_392_1557)" stroke-width="0.372"/>
<path fill-rule="evenodd" clip-rule="evenodd" d="M233.174 711.539L844.328 476.359L777.763 514.996L687.605 549.601L673.259 555.11L635.053 569.85L569.996 594.947L233.174 711.539Z" stroke="url(#paint17_linear_392_1557)" stroke-width="0.372"/>
<path fill-rule="evenodd" clip-rule="evenodd" d="M1316.44 335.765L980.919 452.111L922.065 468.969L912.777 471.634L886.471 479.286L841.782 492.281L908.479 453.532L1316.44 335.765Z" stroke="url(#paint18_linear_392_1557)" stroke-width="0.372"/>
<path fill-rule="evenodd" clip-rule="evenodd" d="M1303.46 342.959L693.717 578.015L760.194 539.389L851.489 504.284L865.809 498.776L903.965 484.031L967.225 459.581L1303.46 342.959Z" stroke="url(#paint19_linear_392_1557)" stroke-width="0.372"/>
<path fill-rule="evenodd" clip-rule="evenodd" d="M629.863 595.301L684.893 580.641L693.686 578.295L718.514 571.512L759.877 560.214L709.585 602.446L325.463 706.111L629.863 595.301Z" stroke="url(#paint20_linear_392_1557)" stroke-width="0.439"/>
<path fill-rule="evenodd" clip-rule="evenodd" d="M332.047 698.165L870.46 467.219L820.365 509.219L740.882 543.176L728.234 548.582L694.601 563.068L637.331 587.735L332.047 698.165Z" stroke="url(#paint21_linear_392_1557)" stroke-width="0.439"/>
<path fill-rule="evenodd" clip-rule="evenodd" d="M1314.14 342.338L1009.3 452.512L953.484 467.232L944.677 469.558L919.804 476.286L877.554 487.716L927.858 445.553L1314.14 342.338Z" stroke="url(#paint22_linear_392_1557)" stroke-width="0.439"/>
<path fill-rule="evenodd" clip-rule="evenodd" d="M1305.36 349.957L766.943 580.902L817.083 538.865L897.756 504.403L910.408 498.994L944.076 484.495L999.895 460.453L1305.36 349.957Z" stroke="url(#paint23_linear_392_1557)" stroke-width="0.439"/>
<path fill-rule="evenodd" clip-rule="evenodd" d="M705.875 595.013L758.79 582.722L767.244 580.754L791.006 574.988L830.59 565.385L801.205 613.963L432.737 701.493L705.875 595.013Z" stroke="url(#paint24_linear_392_1557)" stroke-width="0.517"/>
<path fill-rule="evenodd" clip-rule="evenodd" d="M435.655 692.226L895.173 457.739L865.923 506.154L797.995 540.591L787.187 546.075L758.522 560.801L709.711 585.873L435.655 692.226Z" stroke="url(#paint25_linear_392_1557)" stroke-width="0.517"/>
<path fill-rule="evenodd" clip-rule="evenodd" d="M1316.98 350.28L1044.34 457.008L990.881 469.517L982.448 471.496L958.734 477.289L918.453 487.132L947.845 438.598L1316.98 350.28Z" stroke="url(#paint26_linear_392_1557)" stroke-width="0.517"/>
<path fill-rule="evenodd" clip-rule="evenodd" d="M1311.75 359.362L852.241 593.854L881.516 545.397L950.46 510.445L961.27 504.958L989.964 490.22L1037.54 465.781L1311.75 359.362Z" stroke="url(#paint27_linear_392_1557)" stroke-width="0.517"/>
<path fill-rule="evenodd" clip-rule="evenodd" d="M792.093 605.079L844.069 595.541L852.369 594.012L875.549 589.413L914.166 581.751L912.712 641.076L552.039 709.981L792.093 605.079Z" stroke="url(#paint28_linear_392_1557)" stroke-width="0.61"/>
<path fill-rule="evenodd" clip-rule="evenodd" d="M551.085 699.841L918.298 450.56L916.835 509.761L862.407 546.319L853.751 552.142L830.905 567.82L792.007 594.511L551.085 699.841Z" stroke="url(#paint29_linear_392_1557)" stroke-width="0.61"/>
<path fill-rule="evenodd" clip-rule="evenodd" d="M1324.25 360.709L1083.76 466.062L1031.05 475.79L1022.74 477.333L999.522 481.965L960.083 489.837L961.605 430.41L1324.25 360.709Z" stroke="url(#paint30_linear_392_1557)" stroke-width="0.61"/>
<path fill-rule="evenodd" clip-rule="evenodd" d="M1325.41 371.995L958.856 620.526L960.255 561.361L1015.4 524.366L1024.04 518.562L1046.87 502.917L1084.71 476.978L1325.41 371.995Z" stroke="url(#paint31_linear_392_1557)" stroke-width="0.61"/>
<path fill-rule="evenodd" clip-rule="evenodd" d="M896.951 627.59L949.755 621.533L958.179 620.556L981.499 617.407L1020.35 612.158L1057.78 688.901L693.182 734.476L896.951 627.59Z" stroke="url(#paint32_linear_392_1557)" stroke-width="0.719"/>
<path fill-rule="evenodd" clip-rule="evenodd" d="M684.702 720.449L937.214 442.804L974.78 519.43L937.095 560.077L931.107 566.551L915.51 584.043L888.952 613.825L684.702 720.449Z" stroke="url(#paint33_linear_392_1557)" stroke-width="0.719"/>
<path fill-rule="evenodd" clip-rule="evenodd" d="M1341.57 375.744L1137.38 483.13L1083.83 489.351L1075.39 490.34L1052.04 493.532L1012.36 498.956L974.997 422.125L1341.57 375.744Z" stroke="url(#paint34_linear_392_1557)" stroke-width="0.719"/>
<path fill-rule="evenodd" clip-rule="evenodd" d="M1348.09 390.831L1095.59 668.484L1058.03 591.828L1096.29 550.572L1102.27 544.095L1117.89 526.588L1143.78 497.559L1348.09 390.831Z" stroke="url(#paint35_linear_392_1557)" stroke-width="0.719"/>
<path fill-rule="evenodd" clip-rule="evenodd" d="M1029.08 670.046L1084.87 668.456L1093.76 668.189L1118.09 666.872L1158.61 664.68L1251.1 768.209L868.376 784.046L1029.08 670.046Z" stroke="url(#paint36_linear_392_1557)" stroke-width="0.848"/>
<path fill-rule="evenodd" clip-rule="evenodd" d="M850.171 764.726L954.751 434.749L1047.03 538.066L1030.91 586.291L1028.36 593.975L1022.12 614.799L1011.5 650.257L850.171 764.726Z" stroke="url(#paint37_linear_392_1557)" stroke-width="0.848"/>
<path fill-rule="evenodd" clip-rule="evenodd" d="M1369.06 397.103L1207.8 511.52L1151.13 513.146L1142.21 513.414L1117.8 514.74L1076.34 516.996L983.568 413.134L1369.06 397.103Z" stroke="url(#paint38_linear_392_1557)" stroke-width="0.848"/>
<path fill-rule="evenodd" clip-rule="evenodd" d="M1386.37 415.695L1281.78 745.658L1189.43 642.266L1205.8 593.323L1208.35 585.636L1214.6 564.795L1224.95 530.237L1386.37 415.695Z" stroke="url(#paint39_linear_392_1557)" stroke-width="0.848"/>
<path fill-rule="evenodd" clip-rule="evenodd" d="M1209.26 739.04L1271.72 743.653L1281.66 744.372L1308.49 745.576L1353.18 747.58L1526.51 893.017L1101.25 867.759L1209.26 739.04Z" stroke="url(#paint40_linear_392_1557)"/>
<path fill-rule="evenodd" clip-rule="evenodd" d="M1066.94 842.617L968.868 427.442L1141.76 572.519L1155.14 633.096L1157.3 642.748L1163.9 668.993L1175.14 713.679L1066.94 842.617Z" stroke="url(#paint41_linear_392_1557)"/>
<path fill-rule="evenodd" clip-rule="evenodd" d="M1414.67 426.712L1307.08 554.929L1243.97 550.178L1234.04 549.446L1207.27 548.21L1161.81 546.109L988.647 400.811L1414.67 426.712Z" stroke="url(#paint42_linear_392_1557)"/>
<path fill-rule="evenodd" clip-rule="evenodd" d="M1446.95 455.197L1545.67 869.605L1372.63 724.405L1358.95 663.04L1356.79 653.4L1350.14 627.182L1339.12 583.706L1446.95 455.197Z" stroke="url(#paint43_linear_392_1557)"/>
</g>
<defs>
<linearGradient id="paint0_linear_392_1557" x1="372.46" y1="537.641" x2="-167.159" y2="712.648" gradientUnits="userSpaceOnUse">
<stop stop-color="#006D62"/>
<stop offset="0.51679" stop-color="#001713"/>
<stop offset="1" stop-color="#00AF85"/>
</linearGradient>
<linearGradient id="paint1_linear_392_1557" x1="594.126" y1="421.458" x2="-140.077" y2="664.346" gradientUnits="userSpaceOnUse">
<stop stop-color="#006D62"/>
<stop offset="0.51679" stop-color="#001713"/>
<stop offset="1" stop-color="#00AF85"/>
</linearGradient>
<linearGradient id="paint2_linear_392_1557" x1="1260.41" y1="245.671" x2="719.065" y2="420.229" gradientUnits="userSpaceOnUse">
<stop stop-color="#006D62"/>
<stop offset="0.51679" stop-color="#001713"/>
<stop offset="1" stop-color="#00AF85"/>
</linearGradient>
<linearGradient id="paint3_linear_392_1557" x1="1206.61" y1="226.479" x2="472.97" y2="469.918" gradientUnits="userSpaceOnUse">
<stop stop-color="#006D62"/>
<stop offset="0.51679" stop-color="#001713"/>
<stop offset="1" stop-color="#00AF85"/>
</linearGradient>
<linearGradient id="paint4_linear_392_1557" x1="441.156" y1="526.169" x2="-57.0454" y2="687.626" gradientUnits="userSpaceOnUse">
<stop stop-color="#006D62"/>
<stop offset="0.51679" stop-color="#001713"/>
<stop offset="1" stop-color="#00AF85"/>
</linearGradient>
<linearGradient id="paint5_linear_392_1557" x1="640.535" y1="415.576" x2="-33.5962" y2="642.8" gradientUnits="userSpaceOnUse">
<stop stop-color="#006D62"/>
<stop offset="0.51679" stop-color="#001713"/>
<stop offset="1" stop-color="#00AF85"/>
</linearGradient>
<linearGradient id="paint6_linear_392_1557" x1="1257.42" y1="256.201" x2="758.081" y2="417.759" gradientUnits="userSpaceOnUse">
<stop stop-color="#006D62"/>
<stop offset="0.51679" stop-color="#001713"/>
<stop offset="1" stop-color="#00AF85"/>
</linearGradient>
<linearGradient id="paint7_linear_392_1557" x1="1207.78" y1="237.354" x2="534.228" y2="463.924" gradientUnits="userSpaceOnUse">
<stop stop-color="#006D62"/>
<stop offset="0.51679" stop-color="#001713"/>
<stop offset="1" stop-color="#00AF85"/>
</linearGradient>
<linearGradient id="paint8_linear_392_1557" x1="506.154" y1="518.334" x2="47.1166" y2="667.619" gradientUnits="userSpaceOnUse">
<stop stop-color="#006D62"/>
<stop offset="0.51679" stop-color="#001713"/>
<stop offset="1" stop-color="#00AF85"/>
</linearGradient>
<linearGradient id="paint9_linear_392_1557" x1="683.736" y1="412.558" x2="66.1366" y2="625.655" gradientUnits="userSpaceOnUse">
<stop stop-color="#006D62"/>
<stop offset="0.51679" stop-color="#001713"/>
<stop offset="1" stop-color="#00AF85"/>
</linearGradient>
<linearGradient id="paint10_linear_392_1557" x1="1254.14" y1="264.328" x2="793.402" y2="414.35" gradientUnits="userSpaceOnUse">
<stop stop-color="#006D62"/>
<stop offset="0.51679" stop-color="#001713"/>
<stop offset="1" stop-color="#00AF85"/>
</linearGradient>
<linearGradient id="paint11_linear_392_1557" x1="1210.68" y1="250.361" x2="594.27" y2="462.152" gradientUnits="userSpaceOnUse">
<stop stop-color="#006D62"/>
<stop offset="0.51679" stop-color="#001713"/>
<stop offset="1" stop-color="#00AF85"/>
</linearGradient>
<linearGradient id="paint12_linear_392_1557" x1="570.224" y1="511.191" x2="146.946" y2="649.777" gradientUnits="userSpaceOnUse">
<stop stop-color="#006D62"/>
<stop offset="0.51679" stop-color="#001713"/>
<stop offset="1" stop-color="#00AF85"/>
</linearGradient>
<linearGradient id="paint13_linear_392_1557" x1="723.857" y1="408.674" x2="162.389" y2="610.191" gradientUnits="userSpaceOnUse">
<stop stop-color="#006D62"/>
<stop offset="0.51679" stop-color="#001713"/>
<stop offset="1" stop-color="#00AF85"/>
</linearGradient>
<linearGradient id="paint14_linear_392_1557" x1="1254.12" y1="274.493" x2="829.704" y2="413.175" gradientUnits="userSpaceOnUse">
<stop stop-color="#006D62"/>
<stop offset="0.51679" stop-color="#001713"/>
<stop offset="1" stop-color="#00AF85"/>
</linearGradient>
<linearGradient id="paint15_linear_392_1557" x1="1214.83" y1="260.281" x2="653.363" y2="461.798" gradientUnits="userSpaceOnUse">
<stop stop-color="#006D62"/>
<stop offset="0.51679" stop-color="#001713"/>
<stop offset="1" stop-color="#00AF85"/>
</linearGradient>
<linearGradient id="paint16_linear_392_1557" x1="635.172" y1="510.523" x2="245.938" y2="637.961" gradientUnits="userSpaceOnUse">
<stop stop-color="#006D62"/>
<stop offset="0.51679" stop-color="#001713"/>
<stop offset="1" stop-color="#00AF85"/>
</linearGradient>
<linearGradient id="paint17_linear_392_1557" x1="760.071" y1="405.659" x2="252.447" y2="601.002" gradientUnits="userSpaceOnUse">
<stop stop-color="#006D62"/>
<stop offset="0.51679" stop-color="#001713"/>
<stop offset="1" stop-color="#00AF85"/>
</linearGradient>
<linearGradient id="paint18_linear_392_1557" x1="1254.28" y1="283.607" x2="863.913" y2="412.329" gradientUnits="userSpaceOnUse">
<stop stop-color="#006D62"/>
<stop offset="0.51679" stop-color="#001713"/>
<stop offset="1" stop-color="#00AF85"/>
</linearGradient>
<linearGradient id="paint19_linear_392_1557" x1="1219.37" y1="272.395" x2="712.822" y2="467.665" gradientUnits="userSpaceOnUse">
<stop stop-color="#006D62"/>
<stop offset="0.51679" stop-color="#001713"/>
<stop offset="1" stop-color="#00AF85"/>
</linearGradient>
<linearGradient id="paint20_linear_392_1557" x1="702.539" y1="512.101" x2="345.056" y2="632.158" gradientUnits="userSpaceOnUse">
<stop stop-color="#006D62"/>
<stop offset="0.51679" stop-color="#001713"/>
<stop offset="1" stop-color="#00AF85"/>
</linearGradient>
<linearGradient id="paint21_linear_392_1557" x1="795.107" y1="403.991" x2="341.868" y2="598.401" gradientUnits="userSpaceOnUse">
<stop stop-color="#006D62"/>
<stop offset="0.51679" stop-color="#001713"/>
<stop offset="1" stop-color="#00AF85"/>
</linearGradient>
<linearGradient id="paint22_linear_392_1557" x1="1256.73" y1="294.159" x2="897.561" y2="413.757" gradientUnits="userSpaceOnUse">
<stop stop-color="#006D62"/>
<stop offset="0.51679" stop-color="#001713"/>
<stop offset="1" stop-color="#00AF85"/>
</linearGradient>
<linearGradient id="paint23_linear_392_1557" x1="1230" y1="286.728" x2="776.764" y2="481.139" gradientUnits="userSpaceOnUse">
<stop stop-color="#006D62"/>
<stop offset="0.51679" stop-color="#001713"/>
<stop offset="1" stop-color="#00AF85"/>
</linearGradient>
<linearGradient id="paint24_linear_392_1557" x1="784.818" y1="526.977" x2="452.293" y2="634.255" gradientUnits="userSpaceOnUse">
<stop stop-color="#006D62"/>
<stop offset="0.51679" stop-color="#001713"/>
<stop offset="1" stop-color="#00AF85"/>
</linearGradient>
<linearGradient id="paint25_linear_392_1557" x1="837.135" y1="409.04" x2="435.546" y2="606.211" gradientUnits="userSpaceOnUse">
<stop stop-color="#006D62"/>
<stop offset="0.51679" stop-color="#001713"/>
<stop offset="1" stop-color="#00AF85"/>
</linearGradient>
<linearGradient id="paint26_linear_392_1557" x1="1264.34" y1="306.112" x2="931.258" y2="414.027" gradientUnits="userSpaceOnUse">
<stop stop-color="#006D62"/>
<stop offset="0.51679" stop-color="#001713"/>
<stop offset="1" stop-color="#00AF85"/>
</linearGradient>
<linearGradient id="paint27_linear_392_1557" x1="1247.04" y1="305.062" x2="845.452" y2="502.233" gradientUnits="userSpaceOnUse">
<stop stop-color="#006D62"/>
<stop offset="0.51679" stop-color="#001713"/>
<stop offset="1" stop-color="#00AF85"/>
</linearGradient>
<linearGradient id="paint28_linear_392_1557" x1="897.317" y1="567.613" x2="574.908" y2="653.844" gradientUnits="userSpaceOnUse">
<stop stop-color="#006D62"/>
<stop offset="0.51679" stop-color="#001713"/>
<stop offset="1" stop-color="#00AF85"/>
</linearGradient>
<linearGradient id="paint29_linear_392_1557" x1="894.359" y1="430.473" x2="542.832" y2="630.932" gradientUnits="userSpaceOnUse">
<stop stop-color="#006D62"/>
<stop offset="0.51679" stop-color="#001713"/>
<stop offset="1" stop-color="#00AF85"/>
</linearGradient>
<linearGradient id="paint30_linear_392_1557" x1="1278.7" y1="322.487" x2="954.66" y2="409.432" gradientUnits="userSpaceOnUse">
<stop stop-color="#006D62"/>
<stop offset="0.51679" stop-color="#001713"/>
<stop offset="1" stop-color="#00AF85"/>
</linearGradient>
<linearGradient id="paint31_linear_392_1557" x1="1273.21" y1="328.2" x2="922.396" y2="527.899" gradientUnits="userSpaceOnUse">
<stop stop-color="#006D62"/>
<stop offset="0.51679" stop-color="#001713"/>
<stop offset="1" stop-color="#00AF85"/>
</linearGradient>
<linearGradient id="paint32_linear_392_1557" x1="1049.1" y1="636.285" x2="715.44" y2="698.531" gradientUnits="userSpaceOnUse">
<stop stop-color="#006D62"/>
<stop offset="0.51679" stop-color="#001713"/>
<stop offset="1" stop-color="#00AF85"/>
</linearGradient>
<linearGradient id="paint33_linear_392_1557" x1="963.559" y1="464.91" x2="670.649" y2="678.293" gradientUnits="userSpaceOnUse">
<stop stop-color="#006D62"/>
<stop offset="0.51679" stop-color="#001713"/>
<stop offset="1" stop-color="#00AF85"/>
</linearGradient>
<linearGradient id="paint34_linear_392_1557" x1="1310.12" y1="349.35" x2="975.071" y2="412.293" gradientUnits="userSpaceOnUse">
<stop stop-color="#006D62"/>
<stop offset="0.51679" stop-color="#001713"/>
<stop offset="1" stop-color="#00AF85"/>
</linearGradient>
<linearGradient id="paint35_linear_392_1557" x1="1314.66" y1="362.78" x2="1021.75" y2="576.162" gradientUnits="userSpaceOnUse">
<stop stop-color="#006D62"/>
<stop offset="0.51679" stop-color="#001713"/>
<stop offset="1" stop-color="#00AF85"/>
</linearGradient>
<linearGradient id="paint36_linear_392_1557" x1="1260.73" y1="756.724" x2="875.198" y2="786.994" gradientUnits="userSpaceOnUse">
<stop stop-color="#006D62"/>
<stop offset="0.51679" stop-color="#001713"/>
<stop offset="1" stop-color="#00AF85"/>
</linearGradient>
<linearGradient id="paint37_linear_392_1557" x1="1047.01" y1="512.164" x2="761.297" y2="618.254" gradientUnits="userSpaceOnUse">
<stop stop-color="#006D62"/>
<stop offset="0.51679" stop-color="#001713"/>
<stop offset="1" stop-color="#00AF85"/>
</linearGradient>
<linearGradient id="paint38_linear_392_1557" x1="1365.93" y1="400.833" x2="977.603" y2="431.347" gradientUnits="userSpaceOnUse">
<stop stop-color="#006D62"/>
<stop offset="0.51679" stop-color="#001713"/>
<stop offset="1" stop-color="#00AF85"/>
</linearGradient>
<linearGradient id="paint39_linear_392_1557" x1="1440.31" y1="460.952" x2="1154.59" y2="567.042" gradientUnits="userSpaceOnUse">
<stop stop-color="#006D62"/>
<stop offset="0.51679" stop-color="#001713"/>
<stop offset="1" stop-color="#00AF85"/>
</linearGradient>
<linearGradient id="paint40_linear_392_1557" x1="1489.9" y1="936.643" x2="1135.33" y2="915.58" gradientUnits="userSpaceOnUse">
<stop stop-color="#006D62"/>
<stop offset="0.51679" stop-color="#001713"/>
<stop offset="1" stop-color="#00AF85"/>
</linearGradient>
<linearGradient id="paint41_linear_392_1557" x1="1194.46" y1="690.647" x2="839.04" y2="670.209" gradientUnits="userSpaceOnUse">
<stop stop-color="#006D62"/>
<stop offset="0.51679" stop-color="#001713"/>
<stop offset="1" stop-color="#00AF85"/>
</linearGradient>
<linearGradient id="paint42_linear_392_1557" x1="1377.8" y1="470.649" x2="1022.82" y2="449.069" gradientUnits="userSpaceOnUse">
<stop stop-color="#006D62"/>
<stop offset="0.51679" stop-color="#001713"/>
<stop offset="1" stop-color="#00AF85"/>
</linearGradient>
<linearGradient id="paint43_linear_392_1557" x1="1672.34" y1="718.656" x2="1317.77" y2="697.593" gradientUnits="userSpaceOnUse">
<stop stop-color="#006D62"/>
<stop offset="0.51679" stop-color="#001713"/>
<stop offset="1" stop-color="#00AF85"/>
</linearGradient>
<clipPath id="clip0_392_1557">
<rect width="1938" height="1939" fill="white" transform="translate(0 -236)"/>
</clipPath>
</defs>
</svg>
