<svg width="399px" height="126px" viewBox="0 0 399 126" version="1.1" xmlns="http://www.w3.org/2000/svg" xmlns:xlink="http://www.w3.org/1999/xlink"><title>brand/logo-products/jade</title><defs><polygon id="path-1" points="0.794611399 0.933439234 31.492228 0.933439234 31.492228 24.7535751 0.794611399 24.7535751"></polygon><polygon id="path-3" points="0 1.14797927 58.8134715 1.14797927 58.8134715 59.8029016 0 59.8029016"></polygon> </defs> <g id="Unified-Headers" stroke="none" stroke-width="1" fill="none" fill-rule="evenodd"> <g id="Assets" transform="translate(-190.000000, -828.000000)"> <g id="brand/products/logos/jade" transform="translate(190.000000, 828.000000)"> <g id="Group-41" transform="translate(0.000000, -0.000000)"><path d="M170.601036,32.7921244 C171.72228,32.1496373 172.288083,30.9392746 172.281865,29.1548187 C172.412435,27.7247668 171.809326,26.3258031 170.679793,25.4387565 C169.386528,24.6118135 167.865285,24.213886 166.329534,24.2988601 L162.346114,24.2988601 L162.346114,33.7558549 L165.71399,33.7558549 C167.396891,33.8491192 169.07772,33.5195855 170.601036,32.7921244 L170.601036,32.7921244 Z M162.346114,20.2719171 L165.888083,20.2719171 C167.241451,20.348601 168.582383,19.971399 169.697409,19.2004145 C170.654922,18.4356477 171.177202,17.2480829 171.098446,16.025285 C171.218653,14.8149223 170.65285,13.6377202 169.637306,12.9724352 C168.213472,12.2967876 166.636269,11.9962694 165.06114,12.1019689 L162.348187,12.1019689 L162.348187,20.2719171 L162.346114,20.2719171 Z M176.422798,24.2905699 C177.682902,25.4035233 178.329534,27.0988601 178.329534,29.3724352 C178.329534,32.5226943 177.214508,34.7672539 174.996891,36.0916062 C172.779275,37.413886 169.670466,38.0833161 165.676684,38.0936788 L156.574093,38.0936788 L156.574093,7.84290155 L164.493264,7.84290155 C172.833161,7.84290155 177.007254,10.4107772 177.013472,15.544456 C177.07772,17.1548187 176.495337,18.7195855 175.394819,19.894715 C174.323316,21.013886 172.93057,21.7745078 171.409326,22.0688083 C173.249741,22.344456 174.984456,23.1112953 176.422798,24.2905699 L176.422798,24.2905699 Z" id="Fill-1" fill="#FFFFFF"></path><path d="M188.907772,33.8101554 C189.156477,34.1065285 189.533679,34.2619689 189.917098,34.2288083 C190.364767,34.2288083 190.80829,34.1562694 191.231088,34.0091192 L192.414508,37.9531606 C191.152332,38.4754404 189.796891,38.7427979 188.431088,38.7345078 C186.934715,38.8319171 185.471503,38.2847668 184.40829,37.2298446 C183.392746,35.9946114 182.891192,34.4194819 183.007254,32.827772 L183.007254,5.65264249 L188.609326,5.03502591 L188.609326,32.4339896 C188.576166,32.9127461 188.67772,33.3894301 188.907772,33.8101554" id="Fill-3" fill="#FFFFFF"></path><path d="M200.082073,26.4733679 C200.082073,29.2153368 200.500725,31.2422798 201.327668,32.5645596 C202.131813,33.8453886 203.568083,34.5915026 205.076891,34.5127461 C206.591917,34.5915026 208.024041,33.8329534 208.811606,32.5376166 C209.644767,31.227772 210.06342,29.2153368 210.06342,26.5003109 C210.06342,23.7873575 209.644767,21.7790674 208.811606,20.4795855 C208.019896,19.2111917 206.606425,18.4671503 205.114197,18.5396891 C201.775337,18.5231088 200.113161,21.1676684 200.119378,26.4754404 L200.082073,26.4754404 L200.082073,26.4733679 Z M213.134922,17.5303627 C215.049948,19.6940933 216.003316,22.6744041 215.997098,26.4754404 C216.044767,28.6826943 215.597098,30.8754404 214.691399,32.8878756 C213.883109,34.6619689 212.573264,36.1604145 210.923523,37.1946114 C209.174301,38.2516062 207.153575,38.7821762 205.112124,38.7262176 C201.690363,38.7262176 199.01886,37.6484974 197.099689,35.4702591 C195.174301,33.2961658 194.191917,30.3034197 194.191917,26.4733679 C194.144249,24.2723316 194.59399,22.0899482 195.505907,20.0858031 C196.316269,18.3158549 197.628187,16.8256995 199.28,15.7977202 C201.045803,14.7407254 203.072746,14.2101554 205.128705,14.2640415 C208.556684,14.266114 211.219896,15.3459067 213.134922,17.5303627 L213.134922,17.5303627 Z" id="Fill-5" fill="#FFFFFF"></path><path d="M234.659482,14.9104663 C235.921658,15.3809326 237.084352,16.0752332 238.095751,16.9643523 L235.556891,20.3840415 C234.877098,19.8493264 234.128912,19.4140933 233.326839,19.0969948 C232.557927,18.8109845 231.741347,18.6679793 230.918549,18.6762694 C227.438756,18.6762694 225.699896,21.320829 225.699896,26.6058031 C225.699896,29.2855959 226.15171,31.2172021 227.055337,32.3985492 C227.977617,33.5736788 229.418031,34.224456 230.908187,34.1394819 C231.693679,34.1519171 232.475026,34.013057 233.208705,33.7311917 C234.025285,33.3664249 234.792124,32.9021762 235.496788,32.3467358 L238.106114,36.0192746 C236.006632,37.7664249 233.355855,38.7135751 230.626321,38.6887047 C228.601451,38.7384456 226.603523,38.2327461 224.848083,37.2275648 C223.202487,36.2431088 221.89057,34.7881865 221.080207,33.0493264 C220.162073,31.0472539 219.712332,28.8586528 219.766218,26.655544 C219.720622,24.4213472 220.170363,22.2058031 221.080207,20.1643523 C221.880207,18.3757513 223.185907,16.8627979 224.839793,15.8140933 C226.56,14.7488083 228.55171,14.2099482 230.572435,14.2576166 C231.961036,14.2368912 233.345492,14.4586528 234.659482,14.9104663" id="Fill-7" fill="#FFFFFF"></path><path d="M262.391917,38.0646632 L255.969119,38.0646632 L248.000207,25.4201036 L255.743212,14.9102591 L261.654093,14.9102591 L253.952539,25.1092228 L262.391917,38.0646632 Z M242.178446,38.0646632 L242.178446,5.63564767 L247.780518,5.01803109 L247.780518,38.0833161 L242.178446,38.0646632 Z" id="Fill-9" fill="#FFFFFF"></path><path d="M281.073161,17.0002073 L278.888705,20.3680829 C277.236891,19.1473575 275.251399,18.4613472 273.199585,18.4012435 C272.260725,18.345285 271.32601,18.5670466 270.50943,19.0354404 C269.920829,19.3919171 269.56228,20.0344041 269.568497,20.722487 C269.551917,21.1908808 269.690777,21.653057 269.96228,22.0364767 C270.347772,22.4758549 270.841036,22.8136788 271.388187,23.0188601 C272.376788,23.4312953 273.390259,23.7753368 274.424456,24.0447668 C276.467979,24.4862176 278.380933,25.3981347 280.009948,26.7079793 C281.259689,27.9204145 281.920829,29.6136788 281.821347,31.3546114 C281.895959,33.5162694 280.838964,35.5639378 279.029637,36.7494301 C276.969534,38.1110881 274.536373,38.7950259 272.065907,38.7079793 C270.287668,38.7369948 268.519793,38.4406218 266.847254,37.837513 C265.359171,37.3007254 263.985078,36.4841451 262.801658,35.4354404 L265.638964,32.241658 C267.379896,33.7173057 269.576788,34.5380311 271.858653,34.5566839 C272.915648,34.6064249 273.96228,34.3473575 274.880415,33.8188601 C275.580933,33.4084974 276.014093,32.6582383 276.009948,31.8437306 C276.038964,31.2696373 275.895959,30.6976166 275.599585,30.2084974 C275.207876,29.7235233 274.695959,29.3504663 274.113575,29.1307772 C273.021347,28.6810363 271.902176,28.3038342 270.76228,27.999171 C268.812021,27.5805181 267.010984,26.6499482 265.543627,25.3007254 C264.422383,24.1359585 263.82342,22.5670466 263.879378,20.9525389 C263.858653,19.7007254 264.250363,18.4779275 264.992332,17.4727461 C265.802694,16.3950259 266.89285,15.5639378 268.142591,15.0623834 C269.618238,14.4572021 271.201658,14.1629016 272.797513,14.1919171 C275.798549,14.1401036 278.720829,15.1349223 281.073161,17.0002073" id="Fill-11" fill="#FFFFFF"></path><path d="M296.866114,38.2640415 C295.865078,38.5521244 294.828808,38.6992746 293.786321,38.6992746 C291.846425,38.8194819 289.950052,38.1106736 288.565596,36.7510881 C287.373886,35.4909845 286.824663,33.6091192 286.824663,31.1303627 L286.824663,18.9479793 L283.19772,18.9479793 L283.19772,14.8671503 L286.824663,14.8671503 L286.824663,9.75005181 L292.426736,9.08891192 L292.426736,14.8671503 L297.804974,14.8671503 L297.249534,18.904456 L292.426736,18.904456 L292.426736,30.9811399 C292.350052,31.839171 292.557306,32.6972021 293.011192,33.4267358 C293.47544,33.9593782 294.167668,34.239171 294.874404,34.1769948 C295.856788,34.1459067 296.810155,33.8453886 297.630881,33.3065285 L299.60601,36.9438342 C298.774922,37.5324352 297.848497,37.9801036 296.866114,38.2640415" id="Fill-13" fill="#FFFFFF"></path><path d="M316.528912,14.5794819 L315.563109,20.0012435 C314.889534,19.8312953 314.195233,19.7421762 313.500933,19.7401036 C312.253264,19.6882902 311.053264,20.2354404 310.271917,21.2116062 C309.320622,22.5629016 308.678135,24.1090155 308.392124,25.7359585 L308.392124,38.0406218 L302.790052,38.0406218 L302.790052,14.8675648 L307.654301,14.8675648 L308.17658,19.4271503 C308.607668,17.9494301 309.440829,16.6230052 310.578653,15.5888083 C311.587979,14.7162694 312.881244,14.241658 314.218031,14.2561658 C314.999378,14.2540933 315.778653,14.3639378 316.528912,14.5794819" id="Fill-15" fill="#FFFFFF"></path><path d="M333.028187,24.2905699 C333.028187,20.2304663 331.523523,18.1993782 328.518342,18.1993782 C327.264456,18.1454922 326.064456,18.7071503 325.299689,19.7040415 C324.52456,20.7133679 324.074819,22.3133679 323.923523,24.5413472 L333.026114,24.5413472 L333.026114,24.2905699 L333.028187,24.2905699 Z M338.456166,28.1807254 L323.925596,28.1807254 C324.12456,30.425285 324.727668,32.025285 325.664456,32.9931606 C326.719378,33.9879793 328.134922,34.5102591 329.581554,34.4377202 C330.56601,34.4397927 331.542176,34.2698446 332.468601,33.9320207 C333.494508,33.5320207 334.462383,33.0118135 335.35772,32.375544 L337.672746,35.5693264 C335.270674,37.5817617 332.236477,38.6822798 329.100725,38.6760884 C325.569119,38.6760884 322.847876,37.6004145 320.939067,35.4470466 C319.030259,33.2957513 318.072746,30.348601 318.066528,26.6076684 C318.033368,24.4211399 318.449948,22.2532642 319.293472,20.2387565 C320.025078,18.4543005 321.252021,16.9206218 322.83544,15.8180311 C324.460311,14.7258031 326.385699,14.1641451 328.342176,14.2180311 C331.585699,14.2180311 334.097617,15.2439378 335.877927,17.2978238 C337.660311,19.3517098 338.54943,22.2201036 338.54943,25.9030052 C338.603316,26.1973057 338.574301,26.9558549 338.456166,28.1807254 L338.456166,28.1807254 Z" id="Fill-17" fill="#FFFFFF"></path><path d="M355.320207,31.7639378 L355.320207,27.0489119 L352.996891,27.0489119 C349.388601,27.0489119 347.581347,28.3898446 347.57513,31.0779275 C347.508808,32.0209326 347.805181,32.9556477 348.402073,33.6872539 C349.04456,34.3380311 349.941969,34.6758549 350.855959,34.6095337 C352.77513,34.6136788 354.528497,33.5048705 355.345078,31.7639378 L355.320207,31.7639378 Z M361.251813,33.88 C361.579275,34.3442487 362.043523,34.6945078 362.586528,34.8727461 L361.401036,38.5950259 C360.273575,38.5287047 359.17513,38.2053886 358.190674,37.6540933 C357.303627,37.0737824 356.634197,36.2178238 356.283938,35.2167876 C355.550259,36.3359585 354.532642,37.2354404 353.334715,37.826114 C352.093264,38.4126425 350.735751,38.7090155 349.367876,38.6965803 C347.349223,38.8043523 345.378238,38.0934715 343.892228,36.7214508 C342.53057,35.3577202 341.803109,33.4882902 341.883938,31.5629016 C341.757513,29.3059067 342.785492,27.1401036 344.615544,25.8116062 C346.443523,24.4789637 349.04456,23.8198964 352.447668,23.8095337 L355.336788,23.8095337 L355.336788,22.5038342 C355.456995,21.3618653 355.083938,20.2219689 354.310881,19.372228 C353.345078,18.7027979 352.174093,18.3939896 351.003109,18.5017617 C348.903627,18.5805181 346.833161,18.9929534 344.870466,19.7287047 L343.564767,15.9173057 C346.236269,14.8520207 349.083938,14.2903627 351.960622,14.2551295 C357.883938,14.2551295 360.847668,16.9079793 360.853886,22.2157513 L360.853886,31.9359585 C360.804145,32.6116062 360.945078,33.2810363 361.251813,33.88 L361.251813,33.88 Z" id="Fill-19" fill="#FFFFFF"></path> <g id="Group-23" transform="translate(366.839378, 13.257824)"> <mask id="mask-2" fill="white"> <use xlink:href="#path-1"></use> </mask> <g id="Clip-22"></g><path d="M29.812228,2.84476684 C30.9832124,4.29554404 31.5780311,6.12559585 31.4847668,7.98673575 L31.4847668,24.745285 L25.8806218,24.745285 L25.8806218,8.86549223 C25.8806218,6.38259067 25.0329534,5.14528497 23.3396891,5.15150259 C22.477513,5.1411399 21.6464249,5.44994819 20.9977202,6.02196891 C20.1832124,6.77637306 19.4972021,7.65927461 18.962487,8.63129534 L18.962487,24.7535751 L13.3604145,24.7535751 L13.3604145,8.86549223 C13.3604145,6.38259067 12.5106736,5.14528497 10.8091192,5.15150259 C9.93658031,5.13492228 9.08683938,5.44580311 8.42569948,6.02196891 C7.61948187,6.78051813 6.93554404,7.66134715 6.39668394,8.63129534 L6.39668394,24.7535751 L0.794611399,24.7535751 L0.794611399,1.60953368 L5.65056995,1.60953368 L6.08580311,4.6292228 C7.54279793,2.33699482 10.0692228,0.948393782 12.7842487,0.948393782 C14.0215544,0.913160622 15.2402073,1.26549223 16.266114,1.95772021 C17.277513,2.66445596 18.0381347,3.67792746 18.4319171,4.84683938 C19.2236269,3.67170984 20.2557513,2.67689119 21.4598964,1.9307772 C22.6433161,1.25720207 23.9863212,0.915233161 25.3500518,0.938031088 C27.0453886,0.869637306 28.6868394,1.5680829 29.812228,2.84476684" id="Fill-21" fill="#FFFFFF" mask="url(#mask-2)"></path> </g><path d="M188.486839,100.390466 L188.486839,60.9148187 L177.45057,60.9148187 L177.45057,99.8909845 C177.45057,106.502383 173.960415,110.29513 167.879585,110.29513 C163.98943,110.29513 162.115855,108.852642 160.314819,107.072332 L153.038135,114.272332 C157.232953,118.396684 161.554197,120.081658 167.879585,120.081658 C177.804974,120.081658 188.486839,113.92 188.486839,100.390466" id="Fill-24" fill="#00B093"></path><path d="M237.628808,77.3092228 L245.218446,99.9019689 L229.778031,99.9019689 L237.628808,77.3092228 Z M248.12,109.108187 L248.178031,109.288497 L251.610155,119.582798 L263.106528,119.582798 L241.682694,60.9133679 L232.988394,60.9133679 L211.645389,119.582798 L223.139689,119.582798 L226.714819,109.108187 L248.12,109.108187 Z" id="Fill-26" fill="#00B093"></path><path d="M316.717098,106.041451 C314.598964,108.603109 311.788601,109.794819 307.86943,109.794819 L298.882902,109.794819 L298.882902,70.7046632 L307.86943,70.7046632 C311.788601,70.7046632 314.598964,71.8943005 316.717098,74.4559585 L316.717098,74.4580311 C318.899482,77.1419689 319.266321,80.6943005 319.266321,90 C319.266321,99.0963731 318.91399,103.33886 316.717098,106.041451 M330.315026,92.2238342 C330.308808,91.4860104 330.304663,90.7419689 330.304663,90 C330.304663,89.2518135 330.308808,88.5119171 330.315026,87.7761658 C330.362694,79.9233161 330.40829,72.5056995 324.393782,66.4911917 C320.746114,62.8414508 315.405181,60.9139896 308.951295,60.9139896 L287.84456,60.9139896 L287.84456,119.58342 L308.951295,119.58342 C315.405181,119.58342 320.746114,117.655959 324.393782,114.004145 C330.410363,107.987565 330.364767,100.331606 330.315026,92.2238342" id="Fill-28" fill="#00B093"></path><polygon id="Fill-30" fill="#00B093" points="397.886218 70.7040415 397.886218 60.9133679 359.417824 60.9133679 359.417824 119.582798 397.886218 119.582798 397.886218 109.794197 370.456166 109.794197 370.456166 94.8926425 393.811606 94.8926425 393.811606 85.106114 370.456166 85.106114 370.456166 70.7040415"></polygon> <g id="Group-34" transform="translate(0.000000, 65.071295)"> <mask id="mask-4" fill="white"> <use xlink:href="#path-3"></use> </mask> <g id="Clip-33"></g><polygon id="Fill-32" fill="#06886F" mask="url(#mask-4)" points="58.8134715 21.000829 50.0756477 12.5448705 48.6849741 11.1956477 45.0207254 7.42777202 38.9088083 1.14797927 -0.00103626943 1.14797927 58.8134715 59.8029016"></polygon> </g><polygon id="Fill-35" fill="#00B093" points="66.1220725 125.174922 124.917927 66.2194819 86.1158549 66.2194819 77.6578238 74.9593782 76.308601 76.3500518 72.5407254 80.0163731 66.1220725 86.2609326"></polygon><polygon id="Fill-37" fill="#A9DBD3" points="66.1220725 0.0232124352 66.1220725 38.8294301 74.9718135 47.3890155 76.3604145 48.7382383 80.0267358 52.5081865 86.2567876 58.9123316 125.168705 58.9123316"></polygon><polygon id="Fill-39" fill="#FFFFFF" points="58.7568912 0 0.00248704663 58.9119171 38.8107772 58.9119171 47.386943 50.0476684 48.7361658 48.6590674 52.506114 44.9906736 58.7568912 38.907772"></polygon> </g> </g> </g> </g> </svg>