<svg width="51" height="51" viewBox="0 0 51 51" fill="none" xmlns="http://www.w3.org/2000/svg">
<g clip-path="url(#clip0_392_1627)">
<path d="M0 0V23.2826H23.2826V0H0ZM19.9565 19.9565H3.32606V3.32606H19.9565V19.9565Z" fill="white"/>
<path d="M16.6305 6.65228H6.65219V16.6306H16.6305V6.65228Z" fill="white"/>
<path d="M27.7174 0V23.2826H51V0H27.7174ZM47.6739 19.9565H31.0434V3.32606H47.6739V19.9565Z" fill="white"/>
<path d="M44.3478 6.65228H34.3695V16.6306H44.3478V6.65228Z" fill="white"/>
<path d="M0 27.7175V51.0001H23.2826V27.7175H0ZM19.9565 47.6741H3.32606V31.0436H19.9565V47.6741Z" fill="white"/>
<path d="M16.6305 34.3695H6.65219V44.3478H16.6305V34.3695Z" fill="white"/>
<path d="M34.3695 31.0436V27.7175H27.7174V51.0001H34.3695V47.6741H31.0434V41.0219H34.3695V37.6958H31.0434V31.0436H34.3695Z" fill="white"/>
<path d="M51 27.7175H47.6739V31.0436H51V27.7175Z" fill="white"/>
<path d="M47.674 35.4783V47.6739H44.3478V51H51V35.4783H47.674Z" fill="white"/>
<path d="M44.3479 27.7175H37.6957V31.0436H44.3479V27.7175Z" fill="white"/>
<path d="M44.3478 37.6957V34.3695H37.6957V44.3478H44.3478V41.0217H41.0217V37.6957H44.3478Z" fill="white"/>
<path d="M41.0217 47.674H37.6957V51.0001H41.0217V47.674Z" fill="white"/>
</g>
<defs>
<clipPath id="clip0_392_1627">
<rect width="51" height="51" fill="white"/>
</clipPath>
</defs>
</svg>
