<svg width="83" height="80" viewBox="0 0 83 80" fill="none" xmlns="http://www.w3.org/2000/svg">
<path fill-rule="evenodd" clip-rule="evenodd" d="M63.7267 17.6199L62.8125 19.4488H63.4285H64.0445V22.532V25.6152L63.2841 25.6027C62.5573 25.5907 62.5141 25.5857 62.3086 25.4893C62.0351 25.361 61.8287 25.1545 61.7004 24.8811C61.6025 24.6724 61.5992 24.641 61.5884 23.819L61.5773 22.9719L61.7133 22.8851C61.7881 22.8374 61.9091 22.7074 61.9822 22.5963C62.3151 22.0905 62.2505 21.4646 61.8209 21.035C61.5691 20.7833 61.3585 20.701 60.9642 20.7006C60.6944 20.7003 60.6034 20.7167 60.4455 20.7945C59.8932 21.0662 59.6158 21.6857 59.7853 22.2687C59.8538 22.5043 60.0834 22.8249 60.2455 22.911L60.3482 22.9657V23.8193C60.3482 24.5429 60.3597 24.7182 60.4241 24.9699C60.6499 25.8526 61.3371 26.5398 62.2198 26.7656C62.4663 26.8286 62.6463 26.8415 63.2806 26.8415H64.0445L64.0444 28.1217L64.0443 29.402L63.7978 29.5294C63.3488 29.7616 62.96 30.2699 62.8557 30.7611C62.6501 31.7297 63.2507 32.6908 64.2194 32.9431C65.5337 33.2854 66.793 32.0303 66.4513 30.7185C66.3188 30.21 65.9666 29.7586 65.5234 29.5294L65.2769 29.402L65.2768 27.5057L65.2766 25.6094H66.0405C66.6748 25.6094 66.8548 25.5965 67.1013 25.5335C67.984 25.3077 68.6713 24.6205 68.897 23.7378C68.96 23.4915 68.973 23.3112 68.973 22.6812V21.9216L69.1085 21.8962C69.2881 21.8625 69.5009 21.6706 69.5528 21.4956C69.5787 21.4083 69.5899 21.0668 69.5822 20.597C69.5686 19.7674 69.5611 19.7389 69.3047 19.5475C69.2049 19.473 69.1467 19.4681 68.3569 19.4681C67.5671 19.4681 67.5089 19.473 67.4091 19.5475C67.1528 19.7389 67.1452 19.7674 67.1317 20.597C67.124 21.0668 67.1351 21.4083 67.161 21.4956C67.2132 21.6716 67.426 21.8626 67.6081 21.8967L67.7465 21.9227L67.7341 22.6783C67.7222 23.3999 67.7171 23.4436 67.6207 23.649C67.4925 23.9224 67.286 24.1289 67.0126 24.2571C66.8071 24.3536 66.7638 24.3586 66.0371 24.3705L65.2766 24.3831V21.9159V19.4488H65.8926H66.5086L65.5944 17.6199C65.0916 16.614 64.6714 15.791 64.6606 15.791C64.6498 15.791 64.2296 16.614 63.7267 17.6199Z" fill="white"/>
<mask id="path-2-inside-1_621_1679" fill="white">
<path fill-rule="evenodd" clip-rule="evenodd" d="M50 0C48.3431 0 47 1.34314 47 3V49C47 50.6569 48.3431 52 50 52H52V58C52 59.6569 53.3431 61 55 61H75C76.6569 61 78 59.6569 78 58V52H80C81.6569 52 83 50.6569 83 49V3C83 1.34315 81.6569 0 80 0H50Z"/>
</mask>
<path d="M52 52H54V50H52V52ZM78 52V50H76V52H78ZM49 3C49 2.44771 49.4477 2 50 2V-2C47.2386 -2 45 0.238574 45 3H49ZM49 49V3H45V49H49ZM50 50C49.4477 50 49 49.5523 49 49H45C45 51.7614 47.2386 54 50 54V50ZM52 50H50V54H52V50ZM54 58V52H50V58H54ZM55 59C54.4477 59 54 58.5523 54 58H50C50 60.7614 52.2386 63 55 63V59ZM75 59H55V63H75V59ZM76 58C76 58.5523 75.5523 59 75 59V63C77.7614 63 80 60.7614 80 58H76ZM76 52V58H80V52H76ZM80 50H78V54H80V50ZM81 49C81 49.5523 80.5523 50 80 50V54C82.7614 54 85 51.7614 85 49H81ZM81 3V49H85V3H81ZM80 2C80.5523 2 81 2.44771 81 3H85C85 0.238577 82.7614 -2 80 -2V2ZM50 2H80V-2H50V2Z" fill="white" mask="url(#path-2-inside-1_621_1679)"/>
<path d="M65.5001 60.5C65.5001 67 63.9001 79 49.5001 79C35.1001 79 31.8334 66 32.0001 59.5V27.5C31.5001 23.3333 27.6 15 16 15C4.4 15 1.16667 23.3333 1 27.5V38.5" stroke="white" stroke-width="2"/>
<path d="M74 51C74 51.5523 73.5523 52 73 52H57C56.4477 52 56 51.5523 56 51V50H74V51Z" fill="white"/>
</svg>
