<svg width="26" height="15" viewBox="0 0 26 15" fill="none" xmlns="http://www.w3.org/2000/svg">
<path d="M24.1024 14.9338C24.6211 15.1235 25.1953 14.8567 25.385 14.338C25.5746 13.8193 25.3079 13.2451 24.7892 13.0554L24.1024 14.9338ZM0.80653 4.59836C0.305648 4.83103 0.0882172 5.42569 0.320887 5.92657L4.11245 14.0889C4.34512 14.5898 4.93978 14.8072 5.44067 14.5746C5.94155 14.3419 6.15898 13.7472 5.92631 13.2464L2.55603 5.99093L9.81146 2.62065C10.3123 2.38798 10.5298 1.79332 10.2971 1.29243C10.0644 0.791551 9.46977 0.57412 8.96889 0.80679L0.80653 4.59836ZM24.7892 13.0554L1.57122 4.5661L0.884413 6.44447L24.1024 14.9338L24.7892 13.0554Z" fill="white"/>
</svg>
